<?xml version="1.0" encoding="UTF-8" standalone="no"?>
<!-- Created with Inkscape (http://www.inkscape.org/) -->

<svg
   xmlns:dc="http://purl.org/dc/elements/1.1/"
   xmlns:cc="http://creativecommons.org/ns#"
   xmlns:rdf="http://www.w3.org/1999/02/22-rdf-syntax-ns#"
   xmlns:svg="http://www.w3.org/2000/svg"
   xmlns="http://www.w3.org/2000/svg"
   xmlns:sodipodi="http://sodipodi.sourceforge.net/DTD/sodipodi-0.dtd"
   xmlns:inkscape="http://www.inkscape.org/namespaces/inkscape"
   width="407.74991"
   height="115.49995"
   id="svg4179"
   version="1.1"
   inkscape:version="0.48.2 r9819"
   sodipodi:docname="meutelogo.svg">
  <defs
     id="defs4181" />
  <sodipodi:namedview
     id="base"
     pagecolor="#ffffff"
     bordercolor="#666666"
     borderopacity="1.0"
     inkscape:pageopacity="0.0"
     inkscape:pageshadow="2"
     inkscape:zoom="1.979899"
     inkscape:cx="234.93956"
     inkscape:cy="138.53371"
     inkscape:document-units="px"
     inkscape:current-layer="layer1"
     showgrid="false"
     inkscape:window-width="1680"
     inkscape:window-height="1005"
     inkscape:window-x="0"
     inkscape:window-y="21"
     inkscape:window-maximized="1"
     fit-margin-top="0"
     fit-margin-left="0"
     fit-margin-right="0"
     fit-margin-bottom="0" />
  <metadata
     id="metadata4184">
    <rdf:RDF>
      <cc:Work
         rdf:about="">
        <dc:format>image/svg+xml</dc:format>
        <dc:type
           rdf:resource="http://purl.org/dc/dcmitype/StillImage" />
        <dc:title></dc:title>
      </cc:Work>
    </rdf:RDF>
  </metadata>
  <g
     inkscape:label="Layer 1"
     inkscape:groupmode="layer"
     id="layer1"
     transform="translate(38.162873,-431.75)">
    <path
       style="fill:#000000;fill-opacity:1;fill-rule:nonzero;stroke:none"
       d="m 248.9375,0 -0.15625,0.03125 0.0312,2.0625 0.125,-0.03125 0.0312,0 3.78125,0.03125 3.78125,0.125 0.0312,0 L 257,2.25 l 0.0937,-2.0625 -0.4375,-0.03125 -0.0312,0 -3.8125,-0.125 -0.0312,0 L 248.96875,0 248.9375,0 z m -8.4375,0.28125 -3.09375,0.1875 -0.0312,0 -3.8125,0.34375 -1.34375,0.125 0.25,2.0625 1.28125,-0.15625 0.0312,0 3.75,-0.3125 0.0312,0 3.0625,-0.1875 -0.125,-2.0625 z m 24.875,0.5 -0.21875,2.0625 2.71875,0.28125 0.0312,0 3.75,0.46875 0.0312,0 1.59375,0.25 0.3125,-2.03125 -1.625,-0.25 -0.0312,0 -3.78125,-0.5 -0.0312,0 -2.75,-0.28125 z m -41.375,1.25 -1.90625,0.3125 -0.0312,0 -3.78125,0.71875 -2.40625,0.5 0.40625,2 2.375,-0.5 0.0312,0 3.75,-0.6875 1.90625,-0.28125 L 224,2.03125 z M 281.78125,3.25 281.375,5.28125 l 1.5,0.28125 0.0312,0 3.6875,0.84375 2.75,0.6875 0.5,-2 -2.75,-0.6875 -0.0312,0 -3.71875,-0.84375 -0.0312,0 L 281.7813,3.25 z m -74,2.21875 -0.8125,0.21875 -0.0312,0 -3.71875,1.0625 -3.375,1.0625 0.59375,1.96875 3.375,-1.0625 0,0.03125 3.6875,-1.0625 0.8125,-0.21875 -0.53125,-2 z m 90.03125,1.90625 -0.59375,1.96875 0.375,0.125 0.0312,0 3.59375,1.1875 3.59375,1.28125 0.0312,0 0.125,0.0625 0.71875,-1.9375 L 305.53125,10 301.90625,8.71875 301.875,8.6875 298.21875,7.5 297.8125,7.375 z m -105.84375,3.1875 -3.46875,1.34375 0,0.03125 -3.59375,1.5 -0.0312,0 -0.5625,0.28125 0.84375,1.875 0.53125,-0.25 0.0312,0 3.53125,-1.5 0.0312,0 3.46875,-1.375 -0.78125,-1.90625 z m 121.40625,2.59375 -0.8125,1.90625 2.84375,1.25 0.0312,0.03125 3.4375,1.625 0.0312,0 1.0625,0.53125 0.9375,-1.8125 -1.09375,-0.5625 -0.0312,0 -3.5,-1.65625 0,-0.03125 -2.90625,-1.28125 z M 176.8125,17.25 l -2.5625,1.3125 -0.0312,0 -3.46875,1.875 -0.0312,0 -1.21875,0.71875 1.03125,1.78125 1.21875,-0.6875 3.4375,-1.875 2.5625,-1.3125 -0.9375,-1.8125 z m 151.40625,3.3125 -1,1.78125 1.875,1.09375 0,-0.03125 3.3125,2 0.0312,0.03125 1.78125,1.15625 1.125,-1.75 -1.84375,-1.15625 0,-0.03125 -3.34375,-2 -0.0312,0 -1.90625,-1.09375 z m -165.8125,4.875 -1.875,1.21875 -0.0312,0 -3.28125,2.25 -0.0312,0 -1.65625,1.1875 1.1875,1.6875 1.65625,-1.1875 3.28125,-2.21875 1.84375,-1.1875 -1.09375,-1.75 z m 179.8125,4.0625 -1.1875,1.6875 1.0625,0.75 0.0312,0.03125 3.125,2.34375 2.28125,1.8125 1.28125,-1.625 -2.28125,-1.8125 -0.0312,0 0,-0.03125 -3.15625,-2.34375 0,-0.03125 -0.0312,0 -1.0938,-0.78125 z m -193.3125,5.59375 -1.375,1.125 -0.0312,0 -3.125,2.625 -1.8125,1.59375 1.375,1.5625 1.78125,-1.59375 3.09375,-2.59375 1.375,-1.09375 -1.28125,-1.625 z m -74.40625,0.75 -0.09375,2.0625 1.375,0.0625 0.0625,0 1.5,0.125 0.03125,0 1.5,0.21875 0.0625,0 1.46875,0.28125 0.03125,0 1.46875,0.34375 0.03125,0 0.375,0.09375 0.5625,-1.96875 -0.40625,-0.125 -0.03125,0 -0.03125,0 -1.53125,-0.375 -0.03125,0 -0.03125,0 -1.5625,-0.28125 -0.03125,0 -0.03125,0 -1.5625,-0.21875 -0.03125,0 -0.03125,0 -1.59375,-0.15625 -0.03125,0 -0.03125,0 L 74.5,35.84375 z M 66.0625,36.625 66,36.65625 l -0.03125,0 -0.03125,0 -1.59375,0.40625 -0.03125,0 -1.59375,0.46875 -0.03125,0 -0.03125,0 -1.5625,0.5625 -0.03125,0 -1.5625,0.625 -0.03125,0 -0.03125,0.03125 -1.375,0.625 0.84375,1.875 1.40625,-0.625 0,-0.03125 1.5,-0.5625 0,-0.03125 1.46875,-0.5 0.0625,0 0,-0.03125 1.5,-0.4375 0,0.03125 1.53125,-0.375 0.0625,-0.03125 0.03125,0 L 66.0625,36.625 z m -36.875,1.03125 C 13.07375,37.65625 0,50.76125 0,66.875 c 0,16.1125 13.07375,29.1875 29.1875,29.1875 15.77675,0 28.626963,-12.53897 29.15625,-28.1875 l 28.46875,0 c -0.163032,0.146512 -0.338154,0.281811 -0.5,0.4375 -1.143064,1.09957 -2.261194,2.32955 -2.5,3.75 -0.07368,0.425445 0.230796,0.895114 0.65625,0.96875 0.425453,0.07364 0.89516,-0.262039 0.96875,-0.6875 0.09869,-0.58705 0.966501,-1.84957 2,-2.84375 0.516749,-0.49709 1.072372,-0.94447 1.53125,-1.28125 0.458878,-0.33678 0.896476,-0.58019 0.9375,-0.59375 0.288764,-0.09265 0.515106,-0.356714 0.5625,-0.65625 0.06766,14.669542 12.00246,26.5625 26.6875,26.5625 7.31588,0 13.95786,-2.942593 18.78125,-7.71875 -0.1822,0.248733 -0.20749,0.602896 -0.0625,0.875 0.0202,0.0403 0.1636,0.49962 0.25,1.0625 0.0864,0.56288 0.14201,1.25203 0.15625,1.96875 0.0285,1.43345 -0.2182,2.95512 -0.5625,3.4375 -0.25362,0.351793 -0.16429,0.902632 0.1875,1.15625 0.35179,0.253618 0.90263,0.164293 1.15625,-0.1875 0.83695,-1.17262 0.90651,-2.8522 0.875,-4.4375 -0.005,-0.246224 -0.0163,-0.482478 -0.0312,-0.71875 L 139.125,90 l 0.0312,0.03125 1.3125,1 0.0312,0.03125 0.0312,0 1.34375,0.9375 0.0312,0 0.0312,0 1.40625,0.84375 0,0.03125 0.0312,0 0.53125,0.28125 0.96875,-1.8125 -0.46875,-0.25 -0.0625,-0.03125 -1.3125,-0.78125 L 143,90.25 l -1.3125,-0.90625 -0.0312,0.03125 -1.1875,-0.9375 -0.0625,-0.03125 -0.9375,-0.8125 c 0.177,0.0093 0.34901,0.02772 0.53125,0.03125 1.58617,0.0307 3.26353,-0.0352 4.4375,-0.875 0.3927,-0.179987 0.58624,-0.701051 0.40625,-1.09375 -0.17999,-0.392699 -0.70105,-0.586237 -1.09375,-0.40625 -0.10277,0.033 -0.19894,0.08643 -0.28125,0.15625 -0.48603,0.34768 -2.00367,0.59024 -3.4375,0.5625 -0.71691,-0.0139 -1.40587,-0.0699 -1.96875,-0.15625 -0.56288,-0.0863 -1.05346,-0.22985 -1.09375,-0.25 -0.29093,-0.140894 -0.66432,-0.08939 -0.90625,0.125 4.58707,-4.602153 7.48706,-10.872616 7.75,-17.8125 l 30.96875,0 c -0.16303,0.146512 -0.33815,0.281811 -0.5,0.4375 -1.14306,1.09957 -2.26119,2.32955 -2.5,3.75 -0.0737,0.425445 0.2308,0.895114 0.65625,0.96875 0.42545,0.07364 0.89516,-0.262039 0.96875,-0.6875 0.0987,-0.58705 0.9665,-1.84957 2,-2.84375 0.51675,-0.49709 1.07237,-0.94447 1.53125,-1.28125 0.45888,-0.33678 0.89648,-0.58019 0.9375,-0.59375 0.28876,-0.09265 0.51511,-0.356714 0.5625,-0.65625 0.032,6.941516 2.7134,13.267898 7.09375,18 l -1.28125,1.21875 -0.0312,0.03125 -1.28125,1.125 -0.0625,0.03125 -0.34375,0.25 1.28125,1.65625 0.375,-0.3125 0.0312,0 0,-0.03125 1.375,-1.1875 0.0312,0 0,-0.03125 L 187,86.4375 c 4.7614,4.405898 11.13433,7.09375 18.125,7.09375 7.31588,0 13.95786,-2.942593 18.78125,-7.71875 -0.1822,0.248731 -0.2075,0.602897 -0.0625,0.875 0.0202,0.0403 0.1636,0.49962 0.25,1.0625 0.0864,0.56288 0.142,1.25203 0.15625,1.96875 0.0285,1.43345 -0.2182,2.95511 -0.5625,3.4375 -0.25362,0.351793 -0.16429,0.902632 0.1875,1.15625 0.35179,0.253618 0.90263,0.164293 1.15625,-0.1875 0.83695,-1.17261 0.90651,-2.8522 0.875,-4.4375 -0.005,-0.235543 -0.0173,-0.460984 -0.0312,-0.6875 l 0.4375,0.4375 0,0.03125 0.0312,0 1.78125,1.65625 1.8125,1.59375 0.0312,0 0,0.03125 1.1875,0.96875 1.3125,-1.5625 -1.15625,-0.96875 -0.0312,-0.03125 -1.78125,-1.5625 -1.75,-1.625 -0.0312,0 -0.375,-0.375 c 0.20685,0.01198 0.4107,0.0271 0.625,0.03125 1.58617,0.0307 3.26353,-0.0352 4.4375,-0.875 0.3927,-0.179987 0.58624,-0.701051 0.40625,-1.09375 -0.17999,-0.392699 -0.70105,-0.586237 -1.09375,-0.40625 -0.10277,0.033 -0.19894,0.08643 -0.28125,0.15625 -0.48603,0.34769 -2.00367,0.59024 -3.4375,0.5625 -0.71691,-0.0139 -1.40586,-0.0699 -1.96875,-0.15625 -0.56289,-0.0863 -1.05345,-0.22985 -1.09375,-0.25 -0.29093,-0.140898 -0.66432,-0.0894 -0.90625,0.125 4.58707,-4.602153 7.48706,-10.872616 7.75,-17.8125 l 30.96875,0 c -0.16303,0.146512 -0.33815,0.281811 -0.5,0.4375 -1.14306,1.09957 -2.26119,2.32955 -2.5,3.75 -0.0737,0.425445 0.2308,0.895114 0.65625,0.96875 0.42545,0.07364 0.89516,-0.262039 0.96875,-0.6875 0.0987,-0.58705 0.9665,-1.84957 2,-2.84375 0.51675,-0.49709 1.07237,-0.94447 1.53125,-1.28125 0.45888,-0.33678 0.89648,-0.58019 0.9375,-0.59375 0.28876,-0.09265 0.51511,-0.356714 0.5625,-0.65625 0.0677,14.669542 12.00246,26.5625 26.6875,26.5625 14.72686,0 26.6875,-11.9607 26.6875,-26.6875 0,-14.7304 -11.96064,-26.6875 -26.6875,-26.6875 -14.68504,0 -26.61984,11.889399 -26.6875,26.5625 -0.0474,-0.299536 -0.27374,-0.563603 -0.5625,-0.65625 -0.0439,-0.0147 -0.47845,-0.22546 -0.9375,-0.5625 -0.45905,-0.33704 -1.01452,-0.78425 -1.53125,-1.28125 -1.03346,-0.99399 -1.90102,-2.28478 -2,-2.875 -0.0658,-0.437205 -0.53435,-0.769753 -0.96875,-0.6875 -0.42611,0.08041 -0.73962,0.543208 -0.65625,0.96875 0.23852,1.42228 1.3569,2.6818 2.5,3.78125 0.15381,0.147939 0.31377,0.269822 0.46875,0.40625 l -30.9375,0 C 231.23853,51.559304 219.50664,40.15625 205.125,40.15625 c -14.68504,0 -26.61984,11.889399 -26.6875,26.5625 -0.0474,-0.299536 -0.27374,-0.563603 -0.5625,-0.65625 -0.0439,-0.0147 -0.47845,-0.22546 -0.9375,-0.5625 -0.45905,-0.33704 -1.01452,-0.78425 -1.53125,-1.28125 -1.03346,-0.99399 -1.90102,-2.28478 -2,-2.875 -0.0658,-0.437205 -0.53435,-0.769753 -0.96875,-0.6875 -0.42611,0.08041 -0.73962,0.543208 -0.65625,0.96875 0.23852,1.42228 1.3569,2.6818 2.5,3.78125 0.15381,0.147939 0.31377,0.269822 0.46875,0.40625 l -30.9375,0 C 143.56364,59.223759 140.94028,53.245183 136.75,48.71875 l 1.1875,-1.15625 -1.4375,-1.46875 -1.21875,1.1875 c -4.76261,-4.419063 -11.12338,-7.125 -18.125,-7.125 -7.31588,0 -13.95786,2.943085 -18.78125,7.71875 0.17948,-0.236768 0.216879,-0.573359 0.09375,-0.84375 -0.01831,-0.0402 -0.152772,-0.52601 -0.21875,-1.09375 -0.06598,-0.56774 -0.105917,-1.28024 -0.09375,-2 0.02433,-1.43952 0.353333,-2.9323 0.71875,-3.40625 0.464695,-0.531836 -0.162842,-1.531246 -0.84375,-1.34375 -0.18607,0.04574 -0.354961,0.158336 -0.46875,0.3125 -0.884583,1.1473 -1.035583,2.84515 -1.0625,4.4375 -0.0042,0.247571 0.02257,0.482787 0.03125,0.71875 l -1.09375,-1 -0.03125,-0.03125 -0.03125,0 -1.21875,-1 -0.03125,-0.03125 -0.03125,0 -1.25,-0.9375 -0.03125,-0.03125 -0.03125,0 -1.3125,-0.875 -0.03125,0 -0.03125,-0.03125 -0.6875,-0.40625 -1.03125,1.78125 0.65625,0.375 0.03125,0.03125 1.25,0.8125 0.03125,0.03125 1.1875,0.875 0.0625,0.03125 1.125,0.9375 0.0625,0.03125 0.8125,0.75 c -0.177342,-0.01688 -0.348319,-0.05227 -0.53125,-0.0625 -1.590951,-0.089 -3.292259,-0.0492 -4.5,0.75 -0.359974,0.245437 -0.464187,0.796276 -0.21875,1.15625 0.245437,0.359974 0.796276,0.464187 1.15625,0.21875 0.496009,-0.32823 2.030014,-0.54919 3.46875,-0.46875 0.719368,0.0402 1.406551,0.14305 1.96875,0.25 0.562199,0.10695 1.023158,0.25984 1.0625,0.28125 0.266685,0.153078 0.619915,0.140463 0.875,-0.03125 -4.74885,4.795356 -7.685237,11.388104 -7.71875,18.65625 -0.04739,-0.299536 -0.273736,-0.563603 -0.5625,-0.65625 -0.04391,-0.0147 -0.478448,-0.22546 -0.9375,-0.5625 -0.459052,-0.33704 -1.01452,-0.78425 -1.53125,-1.28125 -1.033459,-0.99399 -1.901019,-2.28478 -2,-2.875 -0.06576,-0.437205 -0.534346,-0.769753 -0.96875,-0.6875 -0.426112,0.08041 -0.73962,0.543208 -0.65625,0.96875 0.238519,1.42228 1.356897,2.6818 2.5,3.78125 0.153815,0.147939 0.313766,0.269822 0.46875,0.40625 l -28.4375,0 c -0.260477,-7.273256 -3.174173,-13.894276 -7.8125,-18.875 l 1.28125,-1.09375 0.03125,-0.03125 0.34375,-0.28125 -1.28125,-1.625 -0.40625,0.3125 0,0.03125 -0.03125,0 -1.375,1.25 C 43.880604,40.629164 36.876196,37.65625 29.1875,37.65625 z m 332.53125,1.5625 c -0.21296,0.03886 -0.40854,0.165413 -0.53125,0.34375 -0.84119,1.17235 -0.93694,2.85193 -0.90625,4.4375 0.005,0.235585 0.0174,0.457109 0.0312,0.6875 l -1.59375,-1.5625 -2.96875,-2.75 -0.59375,-0.5 -1.34375,1.53125 0.53125,0.5 0.0312,0 2.90625,2.6875 0.0312,0.03125 1.5,1.46875 c -0.19694,-0.01105 -0.39022,-0.02729 -0.59375,-0.03125 -1.58552,-0.0309 -3.2651,0.0659 -4.4375,0.90625 -0.35179,0.253618 -0.44112,0.804457 -0.1875,1.15625 0.25362,0.351793 0.80446,0.441118 1.15625,0.1875 0.4826,-0.34591 2.00427,-0.62164 3.4375,-0.59375 0.71662,0.014 1.40592,0.0699 1.96875,0.15625 0.56283,0.0863 1.05345,0.22985 1.09375,0.25 0.27778,0.136306 0.6324,0.09831 0.875,-0.09375 -4.79381,4.825536 -7.75,11.478979 -7.75,18.8125 0,6.990667 2.68766,13.364396 7.09375,18.125 l -1.78125,1.75 -0.0312,0.03125 -0.25,0.21875 1.40625,1.5 0.28125,-0.25 1.84375,-1.78125 c 4.76073,4.405921 11.13205,7.09375 18.125,7.09375 14.72686,0 26.6875,-11.9607 26.6875,-26.6875 0,-14.7304 -11.96064,-26.6875 -26.6875,-26.6875 -7.36583,0 -14.04458,2.981932 -18.875,7.8125 0.23732,-0.240177 0.30285,-0.633337 0.15625,-0.9375 -0.0202,-0.0403 -0.1637,-0.49969 -0.25,-1.0625 -0.0863,-0.56281 -0.14238,-1.28341 -0.15625,-2 -0.0277,-1.43318 0.21619,-2.95485 0.5625,-3.4375 0.37138,-0.502801 -0.0951,-1.354601 -0.71875,-1.3125 -0.0208,-7.9e-4 -0.0417,-7.9e-4 -0.0625,0 z m -244.5625,3 c 13.61314,0 24.625,11.0079 24.625,24.625 0,13.6132 -11.01186,24.625 -24.625,24.625 -13.61314,0 -24.625,-11.0121 -24.625,-24.625 0,-13.61679 11.01186,-24.625 24.625,-24.625 z m 87.96875,0 c 13.61314,0 24.625,11.0079 24.625,24.625 0,13.6132 -11.01186,24.625 -24.625,24.625 -13.61314,0 -24.625,-11.0121 -24.625,-24.625 0,-13.61679 11.01186,-24.625 24.625,-24.625 z m 87.96875,0 c 13.61314,0 24.625,11.0079 24.625,24.625 0,13.6132 -11.01186,24.625 -24.625,24.625 -13.61314,0 -24.625,-11.0121 -24.625,-24.625 0,-13.61679 11.01186,-24.625 24.625,-24.625 z m 87.96875,0 c 13.61314,0 24.625,11.0079 24.625,24.625 0,13.6132 -11.01186,24.625 -24.625,24.625 -13.61834,0 -24.625,-11.01186 -24.625,-24.625 0,-13.61704 11.00666,-24.625 24.625,-24.625 z m -9.125,13.96875 c 0,0.205 0.006,0.42625 0.0312,0.65625 0.0188,0.225 0.0613,0.4625 0.125,0.6875 0.37125,0.04375 0.645,0.105 0.875,0.1875 0.24375,0.08375 0.43625,0.22 0.5625,0.40625 0.1425,0.185 0.24245,0.44875 0.28125,0.78125 0.0637,0.32625 0.0937,0.75625 0.0937,1.3125 l 0,9.84375 c 0,1.19625 0.13125,2.26 0.375,3.1875 0.24875,0.9275 0.67375,1.70375 1.25,2.34375 0.59625,0.615 1.3775,1.07875 2.34375,1.40625 0.9675,0.3075 2.17875,0.46875 3.625,0.46875 1.05,0 1.9675,-0.14375 2.8125,-0.4375 0.845,-0.2875 1.58625,-0.7125 2.1875,-1.3125 0.34625,-0.35125 0.61375,-0.74625 0.84375,-1.15625 0.225,-0.435 0.40875,-0.90125 0.53125,-1.4375 0.14625,-0.5575 0.24125,-1.19125 0.28125,-1.875 0.0625,-0.6975 0.0937,-1.49125 0.0937,-2.375 l 0,-7.40625 c 0,-0.74125 0.0225,-1.37625 0.0625,-1.875 0.0625,-0.4925 0.17,-0.86875 0.3125,-1.15625 0.14625,-0.28875 0.3375,-0.5025 0.5625,-0.625 0.24875,-0.14125 0.55375,-0.23755 0.90625,-0.28125 0.0638,-0.35125 0.075,-0.62625 0.0937,-0.8125 0.025,-0.205 0.0625,-0.38875 0.0625,-0.53125 -0.415,0.04 -0.9,0.07375 -1.4375,0.09375 l -3.0625,0 c -0.5575,-0.0199 -1.02375,-0.05375 -1.375,-0.09375 0,0.225 0.0125,0.43875 0.0312,0.625 0.02,0.165 0.0613,0.41125 0.125,0.71875 0.44875,0.04375 0.825,0.14 1.09375,0.28125 0.28875,0.1225 0.51375,0.34875 0.65625,0.65625 0.16625,0.2875 0.2688,0.65875 0.3125,1.15625 0.0587,0.47375 0.0937,1.1025 0.0937,1.84375 l 0,7.65625 c 0,0.82 -0.0349,1.53 -0.0937,2.125 -0.0437,0.58125 -0.11625,1.09625 -0.21875,1.53125 -0.1025,0.43 -0.24125,0.775 -0.40625,1.0625 -0.16625,0.28875 -0.37625,0.56375 -0.625,0.8125 -0.43,0.435 -0.9425,0.7525 -1.5625,0.9375 -0.615,0.16625 -1.2,0.25 -1.71875,0.25 -1.03,0 -1.88375,-0.16125 -2.5625,-0.46875 -0.665,-0.33125 -1.17875,-0.7875 -1.59375,-1.34375 -0.39125,-0.55625 -0.67875,-1.2075 -0.84375,-1.96875 -0.1613,-0.7625 -0.25,-1.57375 -0.25,-2.4375 l 0,-9.40625 c 0,-0.55625 0.0238,-0.98625 0.0625,-1.3125 0.0638,-0.3525 0.16625,-0.62625 0.3125,-0.8125 0.16125,-0.185 0.3875,-0.3113 0.65625,-0.375 0.2875,-0.0825 0.64,-0.1438 1.09375,-0.1875 0.0588,-0.225 0.105,-0.4625 0.125,-0.6875 0.0198,-0.23 0.0312,-0.45125 0.0312,-0.65625 -0.4725,0.04 -1.0175,0.07375 -1.65625,0.09375 l -3.90625,0 C 372.8696,56.26135 372.3525,56.2275 371.9375,56.1875 z M 17.40625,56.21875 c 0.3075,0.0387 0.65875,0.07505 1.09375,0.09375 l 1.25,0 c 0.76125,0 1.5375,-0.03495 2.34375,-0.09375 l 7.71875,17.09375 6.75,-17.09375 c 0.35125,0.0387 0.74625,0.07505 1.15625,0.09375 l 2.4375,0 c 0.37125,-0.0188 0.74625,-0.05505 1.15625,-0.09375 0,0.225 -0.0125,0.4575 -0.03125,0.6875 -0.025,0.205 -0.06125,0.395 -0.125,0.625 -0.37125,0 -0.68125,0.0537 -0.96875,0.15625 -0.28875,0.0825 -0.5325,0.25125 -0.71875,0.5 -0.185,0.225 -0.3225,0.55875 -0.40625,0.96875 -0.05875,0.395 -0.05875,0.88 0,1.5 L 40.1875,72 c 0.0775,0.7625 0.17875,1.4125 0.28125,1.90625 0.1025,0.4975 0.24625,0.86875 0.40625,1.15625 0.18625,0.28875 0.38125,0.515 0.625,0.65625 0.25,0.12625 0.5675,0.19875 0.9375,0.21875 0.06375,0.22875 0.105,0.475 0.125,0.71875 0.02,0.22875 0.03125,0.45125 0.03125,0.65625 C 42.35,77.2937 42.0575,77.27 41.75,77.25 c -0.3125,0 -0.61125,-0.01145 -0.9375,-0.03125 l -3.84375,0 c -0.6975,0.02 -1.3075,0.04995 -1.84375,0.09375 0,-0.185 -0.02,-0.4075 0,-0.65625 0.03875,-0.24375 0.0925,-0.4825 0.15625,-0.6875 0.4925,-0.0437 0.9,-0.12375 1.1875,-0.25 0.2875,-0.1225 0.5025,-0.31375 0.625,-0.5625 0.1225,-0.26875 0.1875,-0.59625 0.1875,-1.03125 0,-0.45375 -0.03,-1.04 -0.09375,-1.71875 L 36.0625,61.8125 29.65625,77.28125 C 29.305,77.4275 28.89875,77.5 28.40625,77.5 L 21.1875,61.84375 20.21875,71.75 c -0.0825,0.82 -0.11375,1.52625 -0.09375,2.0625 0.03875,0.51875 0.14,0.90625 0.28125,1.21875 0.16625,0.3075 0.3675,0.54625 0.65625,0.6875 0.3075,0.12625 0.70125,0.20625 1.15625,0.25 0.0575,0.225 0.10625,0.48125 0.125,0.75 0.02,0.24875 0.03125,0.4475 0.03125,0.59375 -0.49875,-0.0437 -1.085,-0.07375 -1.71875,-0.09375 l -3.15625,0 c -0.595,0.02 -1.12125,0.04995 -1.53125,0.09375 0,-0.14625 0.0112,-0.345 0.03125,-0.59375 0.02,-0.26875 0.06125,-0.525 0.125,-0.75 0.41,-0.0437 0.7625,-0.12375 1.03125,-0.25 0.2875,-0.1225 0.50125,-0.3475 0.6875,-0.65625 0.185,-0.3075 0.34125,-0.73625 0.46875,-1.3125 0.12125,-0.57625 0.22875,-1.3225 0.3125,-2.25 l 1,-11.03125 c 0.1075,-1.11375 0,-1.87 -0.3125,-2.28125 -0.3075,-0.43375 -0.88625,-0.65625 -1.75,-0.65625 -0.06375,-0.21 -0.1,-0.4075 -0.125,-0.65625 -0.01875,-0.245 -0.03125,-0.47 -0.03125,-0.65625 z m 275.25,0.0625 c -0.20141,0.02015 -0.4175,0.05185 -0.59375,0.09375 l -6.375,16.4375 c -0.24875,0.62 -0.47125,1.11625 -0.65625,1.53125 -0.16625,0.39 -0.34625,0.72 -0.53125,0.96875 -0.18625,0.25 -0.38875,0.44 -0.59375,0.5625 -0.205,0.12125 -0.41875,0.21875 -0.6875,0.28125 -0.0838,0.18625 -0.1438,0.37625 -0.1875,0.625 -0.0188,0.225 -0.0312,0.45 -0.0312,0.65625 0.2875,-0.02 0.64,-0.0437 1.09375,-0.0625 0.455,-0.02 0.955,-0.03125 1.46875,-0.03125 l 1.5625,0 c 0.5575,0.02 1.02375,0.04875 1.375,0.09375 0,-0.5375 -0.0763,-0.96625 -0.21875,-1.3125 -0.84375,-0.06375 -1.3775,-0.3275 -1.5625,-0.78125 -0.185,-0.47375 -0.0362,-1.31625 0.4375,-2.53125 l 0.8125,-2.15625 c 1.21625,-0.04 2.54875,-0.07375 3.96875,-0.09375 1.485,-0.0188 2.88125,0 4.21875,0 l 1.375,3.125 c 0.205,0.47375 0.3112,0.86875 0.375,1.15625 0.0637,0.28875 0.0825,0.5325 0,0.71875 -0.0838,0.16125 -0.255,0.2912 -0.5,0.375 -0.22875,0.0775 -0.565,0.1438 -1,0.1875 -0.1025,0.185 -0.1687,0.37 -0.1875,0.59375 -0.02,0.23 -0.0312,0.46875 -0.0312,0.71875 0.1425,0 0.3625,-0.01125 0.65625,-0.03125 0.3075,0 0.6375,-0.01245 0.96875,-0.03125 0.3275,0 0.64125,-0.01125 0.96875,-0.03125 l 1.78125,0 1,0.03125 c 0.35125,0.0187 0.675,0.03125 0.96875,0.03125 0.2875,0.02 0.52125,0.03125 0.6875,0.03125 0,-0.25 -0.0113,-0.47125 -0.0312,-0.65625 -0.0238,-0.185 -0.0725,-0.3925 -0.15625,-0.65625 -0.24875,-0.04375 -0.47125,-0.11 -0.65625,-0.1875 -0.16625,-0.1025 -0.34625,-0.2625 -0.53125,-0.46875 -0.16125,-0.22875 -0.3525,-0.535 -0.5625,-0.90625 -0.185,-0.37125 -0.4075,-0.83 -0.65625,-1.40625 l -7.34375,-16.875 c -0.22438,0 -0.42359,-0.02015 -0.625,0 z M 109.9375,56.3125 c 0,0.25 0.0113,0.50125 0.0312,0.75 0.0187,0.225 0.0675,0.40125 0.125,0.5625 0.82625,0.04375 1.36875,0.25375 1.65625,0.625 0.3075,0.35125 0.46875,1.0325 0.46875,2.0625 l 0,12.71875 c 0,0.60125 -0.0425,1.0775 -0.125,1.46875 -0.0637,0.37125 -0.1775,0.68125 -0.34375,0.90625 -0.165,0.22375 -0.3675,0.3975 -0.65625,0.5 -0.2675,0.08255 -0.62125,0.13625 -1.03125,0.15625 -0.10245,0.28875 -0.15625,0.71625 -0.15625,1.3125 0.39,-0.02 0.93375,-0.01255 1.59375,-0.03125 0.67875,0 1.3825,-0.0425 2.125,-0.0625 l 7.6875,0 c 0.5325,0.02 1.03875,0.0625 1.46875,0.0625 0.45375,0.0188 0.8175,0.03125 1.125,0.03125 0.1075,-0.7225 0.23375,-1.50625 0.375,-2.3125 0.16625,-0.82 0.36375,-1.595 0.59375,-2.3125 C 124.6887,72.56375 124.4912,72.415 124.2812,72.3125 124.0766,72.21 123.8075,72.1025 123.5,72 c -0.225,0.635 -0.4425,1.22125 -0.6875,1.71875 -0.22875,0.47375 -0.54625,0.855 -0.9375,1.1875 -0.37125,0.3275 -0.8725,0.58375 -1.46875,0.75 -0.595,0.16125 -1.36625,0.25 -2.3125,0.25 l -0.1875,0 c -0.57625,0 -1.03625,-0.0412 -1.40625,-0.125 -0.3525,-0.0825 -0.63875,-0.2275 -0.84375,-0.4375 -0.205,-0.225 -0.355,-0.50375 -0.4375,-0.875 -0.0587,-0.37125 -0.0937,-0.85625 -0.0937,-1.4375 l 0,-5.59375 1.3125,0 c 0.63875,0 1.1525,0.0425 1.5625,0.125 0.435,0.08375 0.79375,0.24 1.0625,0.46875 0.26875,0.205 0.46625,0.46125 0.59375,0.8125 0.14125,0.3475 0.23625,0.80625 0.28125,1.34375 0.22375,0.06375 0.415,0.1063 0.625,0.125 0.225,0.025 0.49375,0.03125 0.78125,0.03125 -0.0438,-0.5375 -0.0625,-1.1525 -0.0625,-1.8125 l 0,-3.4375 c 0,-0.59625 0.0187,-1.18125 0.0625,-1.71875 -0.2875,0 -0.55625,0.0187 -0.78125,0.0625 -0.21,0.02 -0.41875,0.07375 -0.6875,0.15625 0,0.49875 -0.065,0.91875 -0.1875,1.25 -0.12125,0.3275 -0.32625,0.595 -0.59375,0.78125 -0.26875,0.185 -0.6275,0.2925 -1.0625,0.375 -0.43,0.0637 -0.955,0.09375 -1.59375,0.09375 l -1.3125,0 0,-8.46875 2.21875,0 c 0.99125,0 1.82875,0.12 2.46875,0.34375 0.64,0.225 1.12875,0.535 1.5,0.90625 0.39,0.37125 0.67,0.77625 0.8125,1.25 0.165,0.47375 0.2675,0.965 0.3125,1.4375 0.2875,0 0.55125,-0.0237 0.78125,-0.0625 0.24375,-0.06375 0.4325,-0.16625 0.59375,-0.3125 -0.0787,-0.3275 -0.15505,-0.68375 -0.21875,-1.09375 l -0.1875,-1.3125 c -0.04,-0.45375 -0.0937,-0.9025 -0.15625,-1.3125 -0.04,-0.435 -0.0687,-0.80375 -0.0937,-1.15625 -0.5125,0.02 -1.45,0.0387 -2.8125,0.0625 -1.3575,0.02 -3.095,0.03125 -5.21875,0.03125 l -2.5625,0 c -0.49875,-0.02 -0.96375,-0.03125 -1.4375,-0.03125 -0.47375,-0.0237 -0.88,-0.0425 -1.1875,-0.0625 z m 87.4375,0 c 0,0.7225 -0.0413,1.4875 -0.125,2.3125 -0.0825,0.825 -0.20875,1.59 -0.375,2.3125 0.18625,0.1025 0.41875,0.18005 0.6875,0.21875 0.26375,0.0437 0.48875,0.0625 0.71875,0.0625 0.1025,-0.5175 0.2225,-0.97625 0.34375,-1.40625 0.1275,-0.43375 0.33,-0.82375 0.59375,-1.15625 0.26875,-0.32625 0.64,-0.595 1.09375,-0.78125 0.47375,-0.18505 1.1,-0.28125 1.90625,-0.28125 l 1.59375,0 0,15.78125 c 0,0.5175 -0.0425,0.93 -0.125,1.28125 -0.0588,0.33125 -0.19,0.6025 -0.375,0.8125 -0.18625,0.18625 -0.45,0.335 -0.78125,0.4375 -0.3075,0.08255 -0.72625,0.13625 -1.21875,0.15625 -0.10245,0.28875 -0.15625,0.71625 -0.15625,1.3125 0.58125,-0.04 1.25125,-0.07375 1.96875,-0.09375 l 4.09375,0 c 0.70375,0.0199 1.40375,0.05375 2.0625,0.09375 0,-0.59625 -0.0538,-1.02375 -0.15625,-1.3125 -0.4975,-0.02 -0.9175,-0.07375 -1.25,-0.15625 -0.3075,-0.1025 -0.56375,-0.25125 -0.75,-0.4375 -0.16125,-0.21 -0.2538,-0.48125 -0.3125,-0.8125 -0.0638,-0.35125 -0.0937,-0.76375 -0.0937,-1.28125 l 0,-15.78125 1.46875,0 c 1.29875,0 2.22375,0.34125 2.78125,1 0.575,0.635 0.8987,1.51125 0.9375,2.625 0.24875,0 0.47375,-0.0188 0.71875,-0.0625 0.2675,-0.03875 0.52625,-0.11625 0.75,-0.21875 -0.1213,-1.68875 -0.1875,-3.22375 -0.1875,-4.625 -0.43,0.02 -0.93625,0.0387 -1.53125,0.0625 -0.57625,0 -1.23375,0.01125 -1.9375,0.03125 l -8.9375,0 c -1.4025,-0.02 -2.5425,-0.05375 -3.40625,-0.09375 z m 94.46875,4 c 0.1225,0.28875 0.19875,0.56375 0.28125,0.8125 0.1225,0.2875 0.24125,0.55625 0.34375,0.84375 0.12125,0.26875 0.24125,0.54375 0.34375,0.8125 0.1275,0.26875 0.26,0.5675 0.40625,0.875 l 2.34375,5.5 -7,0 2.125,-5.53125 c 0.185,-0.49875 0.3775,-1.02625 0.5625,-1.5625 0.18125,-0.49375 0.38875,-1.07125 0.59375,-1.75 z m -116.125,31.5625 -0.0312,0.03125 -0.0312,0 -1.5,0.65625 -0.0312,0.03125 -1.53125,0.5625 0,0.03125 -0.0312,0 -1.53125,0.5 -0.0625,0.03125 -1.5625,0.4375 -0.0312,0 -1.21875,0.28125 0.46875,2 1.25,-0.28125 0.0312,0 0.0312,-0.03125 1.625,-0.4375 0.0312,0 0.0312,-0.03125 1.625,-0.53125 0.0312,0 1.625,-0.625 0.0312,-0.03125 1.59375,-0.6875 0.0312,0 0,-0.03125 0.0937,-0.03125 -0.9375,-1.84375 z m 177.53125,0.4375 -1.03125,0.8125 -0.0312,0.03125 -1.90625,1.4375 -0.0312,0.03125 -1.9375,1.375 -0.0312,0.03125 -1.625,1.09375 1.15625,1.71875 1.65625,-1.125 0.0312,-0.03125 1.96875,-1.40625 0.0312,-0.03125 1.96875,-1.46875 0,-0.03125 1.0625,-0.8125 -1.28125,-1.625 z m -200.9375,1.90625 -0.5,2 1,0.25 0.0312,0 1.625,0.3125 0.0312,0 0.0312,0 1.625,0.25 0.0312,0 0.0312,0 1.65625,0.15625 0,0.03125 0.0312,0 1.65625,0.0625 0.0312,0 0.0312,0 0.59375,0 0,-2.0625 -0.53125,0 -0.0625,0 -1.5625,-0.0625 -0.0312,0 L 156.4684,95 l -0.0625,0 -1.53125,-0.25 -0.0625,0 -1.5625,-0.3125 0,0.03125 -0.9375,-0.25 z m 86.65625,2.8125 -1.125,1.71875 1.75,1.1875 0.0312,0.03125 2,1.25 0,0.0312 0.0312,0 2.03125,1.21875 1.21875,0.6875 1,-1.8125 -1.1875,-0.6875 0,0.0312 -2,-1.21875 0,0.03125 -1.96875,-1.25 -0.0312,-0.03125 -1.75,-1.1875 z m 100.71875,4.3125 -1.59375,0.875 -0.0312,0.0312 -2.09375,1.0625 -0.0312,0 -2.09375,1.03125 -0.0312,0 -1.4375,0.65625 0.84375,1.875 1.46875,-0.65625 0.0312,-0.0312 2.15625,-1.03125 2.15625,-1.09375 0.0312,0 1.625,-0.90625 -1,-1.8125 z m -86.5,3.6875 -0.84375,1.875 1.9375,0.84375 0.0312,0.0312 2.15625,0.875 0.0312,0 2.15625,0.84375 0.0312,0 1.375,0.5 0.6875,-1.9375 -1.34375,-0.5 -0.0312,0 -2.125,-0.8125 -0.0312,0 -2.125,-0.875 -1.90625,-0.84375 z m 71.625,2.96875 -1.90625,0.625 -2.21875,0.71875 -0.0312,0 -2.21875,0.625 -0.0312,0 -1.40625,0.375 0.5,2 1.46875,-0.375 2.28125,-0.65625 0.0312,0 2.25,-0.71875 0.0312,0 1.90625,-0.65625 L 324.8125,108 z m -56.25,2.40625 -0.5,2 1.875,0.46875 0.0312,0 2.25,0.5 0.0312,0 0,0.0312 2.28125,0.4375 0.0312,0 1.625,0.28125 0.34375,-2.03125 -1.59375,-0.28125 -0.0312,0 -2.21875,-0.4375 -0.0312,0 -2.21875,-0.5 -0.0312,0 -1.84375,-0.46875 z m 40.46875,1.65625 -1.96875,0.3125 -2.28125,0.3125 -0.0312,0 -2.28125,0.25 -1.5625,0.125 0.1875,2.0625 1.5625,-0.125 0.0312,0 2.3125,-0.28125 0.0312,0 2.3125,-0.3125 0.0312,0 1.96875,-0.3125 -0.3125,-2.03125 z m -24.40625,1.03125 -0.15625,2.0625 1.71875,0.125 0.0312,0 2.3125,0.125 0.0312,0 2.34375,0.0625 1.875,0.0312 0,-2.0625 -1.8125,-0.0312 -0.0312,0 -2.28125,-0.0625 -0.0312,0 -2.3125,-0.125 0,0.0312 -1.6875,-0.15625 z"
       transform="translate(-38.162873,431.75)"
       id="path3322"
       inkscape:connector-curvature="0" />
  </g>
</svg>
